<?xml version="1.0" encoding="UTF-8"?>
<svg width="128" height="128" viewBox="0 0 128 128" fill="none" xmlns="http://www.w3.org/2000/svg">
  <rect width="128" height="128" rx="25.6" fill="#1A73E8"/>
  <path d="M32 64C32 59.6 35.6 56 40 56H72C76.4 56 80 59.6 80 64V96C80 100.4 76.4 104 72 104H40C35.6 104 32 100.4 32 96V64Z" fill="white"/>
  <path d="M48 32C43.6 32 40 35.6 40 40V72C40 76.4 43.6 80 48 80H80C84.4 80 88 76.4 88 72V40C88 35.6 84.4 32 80 32H48Z" fill="white" fill-opacity="0.8"/>
  <path d="M64 48C56.3 48 48 55.2 48 64C48 72.8 56.3 80 64 80C71.7 80 80 72.8 80 64C80 55.2 71.7 48 64 48Z" fill="#1A73E8"/>
  <path d="M64 56C67.3 56 70 58.7 70 62C70 65.3 67.3 68 64 68C60.7 68 58 65.3 58 62C58 58.7 60.7 56 64 56Z" fill="white"/>
</svg>
